HIERARCHY
ROOT Hips
{
	OFFSET 0.00000 0.00000 0.00000
	CHANNELS 6 Xposition Yposition Zposition Zrotation Yrotation Xrotation 
	JOINT LHipJoint
	{
		OFFSET 0 0 0
		CHANNELS 3 Zrotation Yrotation Xrotation
		JOINT LeftUpLeg
		{
			OFFSET 1.64549 -1.70879 0.84566
			CHANNELS 3 Zrotation Yrotation Xrotation
			JOINT LeftLeg
			{
				OFFSET 2.24963 -6.18082 0.00000
				CHANNELS 3 Zrotation Yrotation Xrotation
				JOINT LeftFoot
				{
					OFFSET 2.71775 -7.46697 0.00000
					CHANNELS 3 Zrotation Yrotation Xrotation
					JOINT LeftToeBase
					{
						OFFSET 0.18768 -0.51564 2.24737
						CHANNELS 3 Zrotation Yrotation Xrotation
						End Site
						{
							OFFSET 0.00000 -0.00000 1.15935
						}
					}
				}
			}
		}
	}
	JOINT RHipJoint
	{
		OFFSET 0 0 0
		CHANNELS 3 Zrotation Yrotation Xrotation
		JOINT RightUpLeg
		{
			OFFSET -1.58830 -1.70879 0.84566
			CHANNELS 3 Zrotation Yrotation Xrotation
			JOINT RightLeg
			{
				OFFSET -2.25006 -6.18201 0.00000
				CHANNELS 3 Zrotation Yrotation Xrotation
				JOINT RightFoot
				{
					OFFSET -2.72829 -7.49593 0.00000
					CHANNELS 3 Zrotation Yrotation Xrotation
					JOINT RightToeBase
					{
						OFFSET -0.21541 -0.59185 2.10643
						CHANNELS 3 Zrotation Yrotation Xrotation
						End Site
						{
							OFFSET -0.00000 -0.00000 1.09838
						}
					}
				}
			}
		}
	}
	JOINT LowerBack
	{
		OFFSET 0 0 0
		CHANNELS 3 Zrotation Yrotation Xrotation
		JOINT Spine
		{
			OFFSET 0.03142 2.10496 -0.11038
			CHANNELS 3 Zrotation Yrotation Xrotation
			JOINT Spine1
			{
				OFFSET -0.01863 2.10897 -0.06956
				CHANNELS 3 Zrotation Yrotation Xrotation
				JOINT Neck
				{
					OFFSET 0 0 0
					CHANNELS 3 Zrotation Yrotation Xrotation
					JOINT Neck1
					{
						OFFSET -0.02267 1.73238 0.00451
						CHANNELS 3 Zrotation Yrotation Xrotation
						JOINT Head
						{
							OFFSET -0.05808 1.54724 -0.61749
							CHANNELS 3 Zrotation Yrotation Xrotation
							End Site
							{
								OFFSET -0.01396 1.71468 -0.21082
							}
						}
					}
				}
				JOINT LeftShoulder
				{
					OFFSET 0 0 0
					CHANNELS 3 Zrotation Yrotation Xrotation
					JOINT LeftArm
					{
						OFFSET 3.44898 0.50298 0.21920
						CHANNELS 3 Zrotation Yrotation Xrotation
						JOINT LeftForeArm
						{
							OFFSET 5.41917 -0.00000 -0.00000
							CHANNELS 3 Zrotation Yrotation Xrotation
							JOINT LeftHand
							{
								OFFSET 2.44373 -0.00000 0.00000
								CHANNELS 3 Zrotation Yrotation Xrotation
								JOINT LeftFingerBase
								{
									OFFSET 0 0 0
									CHANNELS 3 Zrotation Yrotation Xrotation
									JOINT LeftHandIndex1
									{
										OFFSET 0.72750 -0.00000 0.00000
										CHANNELS 3 Zrotation Yrotation Xrotation
										End Site
										{
											OFFSET 0.58653 -0.00000 0.00000
										}
									}
								}
								JOINT LThumb
								{
									OFFSET 0 0 0
									CHANNELS 3 Zrotation Yrotation Xrotation
									End Site
									{
										OFFSET 0.59549 -0.00000 0.59549
									}
								}
							}
						}
					}
				}
				JOINT RightShoulder
				{
					OFFSET 0 0 0
					CHANNELS 3 Zrotation Yrotation Xrotation
					JOINT RightArm
					{
						OFFSET -3.23015 0.55830 0.31051
						CHANNELS 3 Zrotation Yrotation Xrotation
						JOINT RightForeArm
						{
							OFFSET -5.58976 -0.00010 0.00014
							CHANNELS 3 Zrotation Yrotation Xrotation
							JOINT RightHand
							{
								OFFSET -2.48060 -0.00000 0.00000
								CHANNELS 3 Zrotation Yrotation Xrotation
								JOINT RightFingerBase
								{
									OFFSET 0 0 0
									CHANNELS 3 Zrotation Yrotation Xrotation
									JOINT RightHandIndex1
									{
										OFFSET -0.81601 -0.00000 0.00000
										CHANNELS 3 Zrotation Yrotation Xrotation
										End Site
										{
											OFFSET -0.65789 -0.00000 0.00000
										}
									}
								}
								JOINT RThumb
								{
									OFFSET 0 0 0
									CHANNELS 3 Zrotation Yrotation Xrotation
									End Site
									{
										OFFSET -0.66793 -0.00000 0.66793
									}
								}
							}
						}
					}
				}
			}
		}
	}
}
MOTION
Frames: 8
Frame Time: 0.0136986
0.00 0.00 0.00 0 0 0 0 0 0 -21 0 0 0 0 0 0 0 0 0 0 0 0 0 0 21 0 0 0 0 0 0 0 0 0 0 0 0 0 0 0 0 0 0 0 0 0 0 -16 0 0 21 0 0 11 0 0 0 -8 0 0 0 0 0 0 0 0 0 0 0 0 0 0 0 0 0 0 0 0 8 0 0 0 0 0 0 0 0 0 0 0 0 0 0 0 0 0
0.00 0.00 0.00 -8.0210 -51.1874 28.0524 0.0000 0.0000 0.0000 -20.4625 -14.7614 -46.2954 6.4205 14.8238 46.6468 5.5043 9.6102 -48.0679 1.0955 6.6513 18.6863 0.0000 0.0000 0.0000 31.3320 -6.8895 -32.4997 -8.7561 -16.6482 55.2427 0.8541 -42.2992 27.0402 -5.3416 -13.7585 42.2786 -0.6407 2.3982 -16.0828 0.2050 3.0234 -7.5964 1.0692 1.4385 0.8946 0.3850 -0.8135 -11.7698 2.8115 -3.8236 42.3022 0.4302 -1.4959 17.6843 -0.0000 -0.0000 0.0000 -78.8806 11.0724 2.6082 10.6165 -17.6980 -1.6575 -0.0000 -0.0000 18.8838 -29.8861 16.8599 -9.4632 -7.1250 0.0000 -0.0000 -48.1333 41.2670 6.1403 -0.0000 -0.0000 0.0000 72.8227 -6.6332 -108.8003 -2.1767 3.7638 -0.0715 0.0000 0.0000 134.7500 14.0596 13.5031 3.3466 7.1250 -0.0000 -0.0000 27.4253 -16.7406 20.9357
0.00 0.00 0.00 -8.0255 -53.6141 30.8816 0.0000 0.0000 0.0000 -19.0080 -17.1728 -44.9132 6.0620 14.4881 45.2299 4.5809 4.9000 -42.3428 0.3466 3.7830 10.4668 0.0000 0.0000 0.0000 29.8907 -4.5668 -31.4881 -7.9867 -16.1095 52.5147 1.2775 -39.8571 23.1512 -5.2378 -13.6467 41.8402 -2.2109 3.3237 -15.8714 -0.6784 4.3982 -9.0883 1.1717 2.1613 -0.8905 -1.4752 -0.2974 -10.4296 3.8471 -2.4590 38.9247 1.4362 -1.0587 15.4986 0.0000 0.0000 0.0000 -55.6561 9.4478 -29.2817 10.2968 -17.2026 -1.5616 -0.0000 -0.0000 13.5954 -22.5061 23.4019 -9.3452 -7.1250 0.0000 -0.0000 -47.7679 47.4665 -3.7447 0.0000 0.0000 0.0000 53.5912 -2.5381 -121.4030 -6.9402 11.8208 -0.7193 0.0000 0.0000 132.6100 7.9881 11.1638 1.5563 7.1250 -0.0000 -0.0000 24.0970 -19.0798 16.4058
0.00 0.00 0.00 -8.1143 -55.0553 30.9256 0.0000 0.0000 0.0000 -18.7208 -18.1273 -45.0687 6.2559 14.6718 46.0004 4.8863 5.7550 -43.9883 1.2297 7.0329 19.8129 0.0000 0.0000 0.0000 29.0448 -4.7377 -31.9221 -8.2766 -16.3190 53.5529 0.7333 -39.2999 25.0162 -5.1412 -13.5411 41.4293 -3.5824 3.4574 -14.9098 -0.6274 4.6972 -9.5016 1.9431 2.3870 -1.9772 -1.8268 -0.1577 -8.7094 4.3057 -2.2247 37.2803 1.6967 -0.9633 14.2900 0.0000 0.0000 0.0000 -58.6149 6.4745 -48.4119 13.0676 -21.3862 -2.4779 -0.0000 0.0000 -14.0847 -9.7533 21.6421 -3.6274 -7.1250 0.0000 -0.0000 -36.4665 47.9870 -3.0767 0.0000 0.0000 0.0000 55.7309 -0.9260 -110.8949 -5.7791 9.8933 -0.5006 0.0000 0.0000 82.0744 -12.9562 19.6061 -4.4144 7.1250 -0.0000 -0.0000 9.9161 -10.1369 8.1422
0.00 0.00 0.00 -7.6736 -54.6817 28.9826 0.0000 0.0000 0.0000 -19.3235 -16.5275 -44.3056 6.5627 14.9523 47.2004 4.7554 4.4147 -42.9238 1.2644 7.1277 20.0942 0.0000 0.0000 0.0000 27.1854 -12.7319 -37.3156 -10.6239 -17.7461 61.5540 4.3633 -44.5357 14.6794 -5.7293 -14.1608 43.8853 -4.7796 3.0463 -13.2249 -0.6048 4.2617 -9.0189 2.4943 2.2396 -2.4305 -1.5606 -0.0835 -5.8451 4.6060 -2.1297 34.7223 1.7315 -0.8833 12.5132 -0.0000 -0.0000 0.0000 -68.7278 -6.2270 -57.7495 15.4506 -24.7701 -3.4125 -0.0000 0.0000 -29.8847 14.2369 22.1227 5.4581 -7.1250 0.0000 -0.0000 -14.9326 52.1186 -2.6658 -0.0000 -0.0000 0.0000 70.0928 9.2351 -108.1058 -6.1961 10.5889 -0.5747 0.0000 0.0000 44.5534 -38.8552 29.5127 -21.6459 7.1250 -0.0000 -0.0000 -4.4749 5.9357 -4.9281
0.00 0.00 0.00 -9.2224 -54.0377 29.3156 0.0000 0.0000 0.0000 -18.1364 -17.9702 -43.9822 6.7938 15.1558 48.0902 4.6240 7.3716 -43.5315 1.4641 7.6471 21.6473 0.0000 0.0000 0.0000 26.3925 -18.3645 -44.4718 -14.3282 -19.2106 73.2043 10.0742 -50.5285 -1.5047 -7.9667 -16.0947 52.4425 -3.1899 3.2457 -12.4751 -0.2731 4.3884 -8.4289 1.9481 2.2425 -2.0970 -0.9976 -0.0983 -4.4714 3.6158 -1.8496 33.4437 1.2699 -0.8162 11.6710 0.0000 0.0000 0.0000 -77.7069 -12.9145 -51.5493 14.3316 -23.2068 -2.9575 -0.0000 0.0000 -32.0577 45.0285 38.6689 32.0236 -7.1250 0.0000 -0.0000 22.8392 77.6819 17.5995 0.0000 0.0000 0.0000 78.5932 15.8180 -106.8900 -6.7084 11.4384 -0.6726 0.0000 0.0000 28.2998 -40.6654 28.1725 -22.0774 7.1250 -0.0000 -0.0000 -5.8135 5.0834 -6.3372
0.00 0.00 0.00 -8.7884 -54.0743 26.9999 0.0000 0.0000 0.0000 -19.3661 -17.0181 -42.2424 6.7161 15.0881 47.7923 4.2832 8.3995 -42.5169 1.5748 7.9177 22.4645 0.0000 0.0000 0.0000 22.7196 -24.5162 -54.4994 -20.3612 -19.9969 91.0562 13.2868 -53.1552 -10.9639 -8.9003 -16.7432 55.7449 -2.8521 2.8613 -10.4214 -0.0663 3.8664 -7.2280 1.8523 1.9773 -1.8912 -0.5798 0.3986 -2.7320 2.9103 -0.9315 32.1113 1.0169 -0.4504 10.7619 -0.0000 -0.0000 0.0000 -87.4007 -15.9861 -17.1740 11.2350 -18.6475 -1.8504 -0.0000 0.0000 -24.8202 23.9143 30.2609 12.5966 -7.1250 0.0000 -0.0000 -8.9396 62.3090 -3.7777 -0.0000 -0.0000 0.0000 88.5417 21.3630 -76.0781 -7.2050 12.2561 -0.7746 0.0000 -0.0000 -4.9372 -42.9677 20.2417 -17.8625 7.1250 -0.0000 -0.0000 -8.9817 -3.5159 -8.5211
0.00 0.00 0.00 -8.3246 -54.1068 26.6340 0.0000 0.0000 0.0000 -19.8951 -15.9876 -42.6008 6.6084 14.9930 47.3771 3.9773 8.6540 -41.2782 1.3408 7.3313 20.7008 0.0000 0.0000 0.0000 21.3462 -25.5482 -59.5132 -22.5960 -19.8376 97.6099 13.9816 -54.8898 -7.7372 -9.1248 -16.8873 56.5207 -3.2205 2.5883 -10.3410 0.0991 3.5521 -6.7945 2.2137 1.8299 -1.4984 -0.3459 0.6146 -2.5810 2.2826 -0.4526 31.7415 0.7913 -0.2704 10.5778 0.0000 -0.0000 0.0000 -89.1809 -15.4909 11.5318 11.5099 -19.0657 -1.9392 -0.0000 0.0000 -25.3541 16.2965 36.7346 9.9184 -7.1250 0.0000 -0.0000 -23.6021 66.4097 -12.4800 0.0000 -0.0000 0.0000 91.6863 19.6667 -34.6067 -8.9445 15.0720 -1.1857 0.0000 -0.0000 -39.0004 -41.6758 11.8208 -10.3349 7.1250 -0.0000 -0.0000 -9.8517 -14.4871 -7.1828
